# xmcd
#
# Track frame offsets: 
#        150
#        21635
#        33818
#        56720
#        72588
#        84383
#        98752
#        119171
#        136139
#        156440
#        172426
#        190005
#        206332
#        223455
#        236551
#        247564
#
# Disc length: 3635 seconds
#
# Revision: 1
# Processed by: cddbd v1.5.2PL0 Copyright (c) Steve Scherf et al.
# Submitted via: ExactAudioCopy v1.0b3
#
DISCID=ed0e3110
DTITLE=조용필 - Best 2
DYEAR=2008
DGENRE=K-Pop
TTITLE0=고추잠자리
TTITLE1=너무 짧아요
TTITLE2=한강
TTITLE3=바람이 전하는 말
TTITLE4=강원도 아리랑
TTITLE5=차라리 학이 되리라
TTITLE6=황진이
TTITLE7=바람과 갈대
TTITLE8=정의 마음
TTITLE9=그대여
TTITLE10=프리마돈나
TTITLE11=외로워 마세요
TTITLE12=눈물의 파티
TTITLE13=영원속으로
TTITLE14=따오기
TTITLE15=민요메들리
EXTD=
EXTT0=
EXTT1=
EXTT2=
EXTT3=
EXTT4=
EXTT5=
EXTT6=
EXTT7=
EXTT8=
EXTT9=
EXTT10=
EXTT11=
EXTT12=
EXTT13=
EXTT14=
EXTT15=
PLAYORDER=
